<svg width="40" height="40" viewBox="0 0 40 40" fill="none" xmlns="http://www.w3.org/2000/svg">
<path d="M19.9989 21.6464C25.9764 21.6464 30.8222 16.8007 30.8222 10.8232C30.8222 4.84562 25.9765 0 19.9989 0C14.0214 0 9.17578 4.8457 9.17578 10.8232C9.18312 16.7976 14.0245 21.6391 19.9989 21.6464ZM19.9989 4.99533C23.2176 4.99533 25.8268 7.60453 25.8268 10.8232C25.8268 14.0419 23.2176 16.6511 19.9989 16.6511C16.7802 16.6511 14.171 14.0419 14.171 10.8232C14.171 7.60453 16.7803 4.99533 19.9989 4.99533Z" fill="#FF9800"/>
<path d="M30.601 26.775C31.7773 26.0002 32.486 24.6867 32.4876 23.2782C32.504 22.1093 31.8444 21.0359 30.7942 20.5224C29.7152 19.9835 28.4236 20.1049 27.464 20.8355C23.0163 24.078 16.9839 24.078 12.5363 20.8355C11.5751 20.1087 10.2858 19.9875 9.20603 20.5224C8.15631 21.0359 7.49638 22.1081 7.51098 23.2765C7.51348 24.6847 8.22196 25.9979 9.39757 26.7732C10.9059 27.7763 12.5484 28.5611 14.2764 29.1044C14.5695 29.1954 14.8719 29.2798 15.1839 29.3576L10.1519 34.278C8.83193 35.5587 8.80001 37.667 10.0808 38.9871C11.3615 40.3071 13.4698 40.339 14.7899 39.0583C14.8173 39.0316 14.8444 39.0045 14.8709 38.9769L19.9995 33.6685L25.138 38.9868C26.4177 40.3079 28.526 40.3414 29.847 39.0618C31.1681 37.7821 31.2016 35.6738 29.922 34.3527C29.8952 34.3251 29.868 34.2979 29.8402 34.2712L24.8166 29.3558C25.1285 29.2759 25.4321 29.191 25.7274 29.1011C27.4535 28.5599 29.0945 27.7767 30.601 26.775Z" fill="#FF9800"/>
</svg>
