<svg width="40" height="40" viewBox="0 0 40 40" fill="none" xmlns="http://www.w3.org/2000/svg">
<g clip-path="url(#clip0)">
<path d="M34.4257 23.0754C35.7526 24.3709 37.153 25.5896 38.343 27.0157C38.8687 27.6495 39.3664 28.3034 39.7472 29.0388C40.2867 30.0843 39.798 31.2348 38.8606 31.2972L33.0333 31.2945C31.5303 31.4192 30.3313 30.8142 29.3232 29.7866C28.5164 28.9648 27.7692 28.0902 26.9934 27.2406C26.6754 26.8935 26.3425 26.5667 25.9448 26.3085C25.1494 25.7921 24.4588 25.9502 24.0042 26.7799C23.5412 27.6238 23.4362 28.5581 23.3907 29.4986C23.3283 30.8708 22.9135 31.2316 21.5351 31.2944C18.5894 31.4333 15.7938 30.9877 13.1967 29.5017C10.907 28.1917 9.13155 26.3422 7.58608 24.2485C4.57725 20.1717 2.27295 15.6919 0.202017 11.0866C-0.264155 10.049 0.0767822 9.49205 1.22163 9.47228C3.12264 9.43533 5.02342 9.43799 6.9267 9.46963C7.69936 9.48096 8.21084 9.92408 8.5092 10.654C9.53772 13.183 10.7962 15.5891 12.3759 17.8193C12.7966 18.4131 13.2256 19.0069 13.8364 19.4248C14.5122 19.8875 15.0267 19.7342 15.3446 18.9813C15.5463 18.504 15.6347 17.9899 15.6801 17.4787C15.8308 15.7199 15.8506 13.964 15.5865 12.2113C15.4243 11.1175 14.8082 10.4094 13.7167 10.2024C13.1598 10.0969 13.2426 9.88963 13.5123 9.57174C13.9807 9.02346 14.4212 8.68213 15.2994 8.68213H21.8852C22.922 8.88674 23.1523 9.35252 23.2942 10.3957L23.2998 17.7111C23.2885 18.1149 23.5015 19.3135 24.229 19.5807C24.8112 19.771 25.1949 19.3053 25.5443 18.9361C27.1211 17.2626 28.2465 15.2848 29.2519 13.2368C29.698 12.3363 30.0817 11.4011 30.4535 10.4667C30.729 9.7733 31.1612 9.43213 31.9423 9.44721L38.2807 9.45283C38.4687 9.45283 38.6588 9.45557 38.8408 9.48674C39.9089 9.66877 40.2016 10.1282 39.8717 11.1712C39.3519 12.8075 38.3406 14.1712 37.3518 15.5411C36.2948 17.0037 35.1642 18.4163 34.116 19.8875C33.1529 21.2313 33.2294 21.9085 34.4257 23.0754Z" fill="#436EAB"/>
</g>
<defs>
<clipPath id="clip0">
<rect width="40" height="40" fill="white"/>
</clipPath>
</defs>
</svg>
